<?xml version="1.0" encoding="utf-8"?>
<!-- Generator: Adobe Illustrator 16.0.3, SVG Export Plug-In . SVG Version: 6.00 Build 0)  -->
<!DOCTYPE svg PUBLIC "-//W3C//DTD SVG 1.1//EN" "http://www.w3.org/Graphics/SVG/1.1/DTD/svg11.dtd">
<svg version="1.1" id="Layer_1" xmlns="http://www.w3.org/2000/svg" xmlns:xlink="http://www.w3.org/1999/xlink" x="0px" y="0px"
	 width="25px" height="30px" viewBox="0 0 25 30" enable-background="new 0 0 25 30" xml:space="preserve">
<g>
	<g>
		<g>
			<path fill="#FFFFFF" d="M24.128,10.879l-0.547-0.579l-1.92-5.172c-0.326-0.874-1.162-1.454-2.096-1.458H5.859
				c-0.932,0-1.769,0.584-2.096,1.458l-1.892,5.108l-0.788,0.729C0.397,11.55,0,12.407,0,13.308v7.537
				c0.005,1.233,1.008,2.23,2.241,2.23h1.415c1.233,0,2.235-0.997,2.241-2.23v-1.093h13.295v1.093c0.005,1.233,1.007,2.23,2.24,2.23
				h1.415c1.232,0,2.235-0.997,2.24-2.23V13.11C25.082,12.269,24.739,11.464,24.128,10.879z M4.771,5.493
				c0.171-0.456,0.605-0.751,1.088-0.751h13.712c0.483,0,0.917,0.3,1.089,0.751l1.672,4.502h-1.249
				c-0.295-2.01-2.166-3.399-4.176-3.099c-1.604,0.236-2.862,1.496-3.099,3.099H3.099L4.771,5.493z M19.989,9.996h-5.099
				c0.297-1.41,1.679-2.311,3.089-2.016C18.987,8.194,19.774,8.982,19.989,9.996z M4.825,20.845
				c-0.005,0.644-0.526,1.158-1.169,1.158H2.241c-0.644,0-1.163-0.515-1.168-1.158V19.44c0.321,0.209,0.745,0.312,1.168,0.312h2.584
				V20.845z M24.015,20.845c-0.005,0.644-0.525,1.158-1.168,1.158h-1.415c-0.644,0-1.163-0.521-1.168-1.158v-1.093h2.583
				c0.424,0,0.847-0.103,1.168-0.312V20.845L24.015,20.845z M22.847,18.68H2.241c-0.638,0.005-1.163-0.504-1.168-1.147v-4.224
				c0-0.589,0.263-1.152,0.713-1.533c0.005-0.005,0.016-0.016,0.021-0.022l0.729-0.686h20.3l0.515,0.552
				c0.005,0.011,0.021,0.016,0.027,0.027c0.401,0.38,0.632,0.912,0.632,1.463v4.422h0.005C24.01,18.17,23.484,18.685,22.847,18.68z"
				/>
		</g>
	</g>
	<g>
		<g>
			<path fill="#FFFFFF" d="M7.076,13.212H3.055c-0.294,0-0.536,0.241-0.536,0.536v2.787c0,0.295,0.241,0.536,0.536,0.536h4.021
				c0.295,0,0.536-0.241,0.536-0.536v-2.787C7.612,13.453,7.371,13.212,7.076,13.212z M6.54,15.999H3.591v-1.715H6.54V15.999z"/>
		</g>
	</g>
	<g>
		<g>
			<path fill="#FFFFFF" d="M22.032,13.212h-4.021c-0.295,0-0.536,0.241-0.536,0.536v2.787c0,0.295,0.241,0.536,0.536,0.536h4.021
				c0.295,0,0.536-0.241,0.536-0.536v-2.787C22.568,13.453,22.327,13.212,22.032,13.212z M21.496,15.999h-2.949v-1.715h2.949V15.999
				z"/>
		</g>
	</g>
	<g>
		<g>
			<path fill="#FFFFFF" d="M15.133,15.463H9.954c-0.294,0-0.536,0.241-0.536,0.536c0,0.296,0.241,0.536,0.536,0.536h5.179
				c0.295,0,0.536-0.24,0.536-0.536C15.669,15.704,15.428,15.463,15.133,15.463z"/>
		</g>
	</g>
	<g>
		<g>
			<path fill="#FFFFFF" d="M15.133,13.802H9.954c-0.294,0-0.536,0.241-0.536,0.536c0,0.294,0.241,0.536,0.536,0.536h5.179
				c0.295,0,0.536-0.242,0.536-0.536C15.669,14.042,15.428,13.802,15.133,13.802z"/>
		</g>
	</g>
</g>
</svg>
