<svg xmlns="http://www.w3.org/2000/svg" xmlns:xlink="http://www.w3.org/1999/xlink" version="1.1" id="Layer_1" x="0" y="0" width="362" height="701" viewBox="0 0 362 701" enable-background="new 0 0 362 701" xml:space="preserve"><filter id="AI_GaussianBlur_7"><feGaussianBlur stdDeviation="7"/></filter><g id="XMLID_2_"><path id="XMLID_51_" opacity="0.05" fill="#231F20" filter="url(#AI_GaussianBlur_7)" d="M333.4 156.2h-1.2v488.1c0 19.7-16 35.7-35.7 35.7H47.7C28 680 12 664 12 644.3V46.7C12 27 28 11 47.7 11h248.8c19.7 0 35.7 16 35.7 35.7v67.9h1.2c2 0 3.6 1.6 3.6 3.6v34.5C337 154.6 335.4 156.2 333.4 156.2z"/><path id="XMLID_49_" fill="#FFFFFF" d="M322.4 146.2h-1.2v488.1c0 19.7-16 35.7-35.7 35.7H36.7C17 670 1 654 1 634.3V36.7C1 17 17 1 36.7 1h248.8c19.7 0 35.7 16 35.7 35.7v67.9h1.2c2 0 3.6 1.6 3.6 3.6v34.5C326 144.6 324.4 146.2 322.4 146.2z"/><path id="XMLID_46_" fill="#f6f9f9" stroke="#F2F6F7" d="M13.1 65.2h294.1c2.6 0 4.8 2.1 4.8 4.8v528c0 2.6-2.1 4.8-4.8 4.8H13.1c-2.6 0-4.8-2.1-4.8-4.8V70C8.4 67.3 10.5 65.2 13.1 65.2z"/><path id="XMLID_43_" fill="#F2F6F7" d="M121.8 36.4h83.3c1.9 0 3.4 1.5 3.4 3.4V40c0 1.9-1.5 3.4-3.4 3.4h-83.3c-1.9 0-3.4-1.5-3.4-3.4v-0.2C118.4 37.9 119.9 36.4 121.8 36.4z"/><path id="XMLID_29_" fill="#F2F6F7" d="M163.6 18.4c2.2 0 4 1.8 4 4s-1.8 4-4 4c-2.2 0-4-1.8-4-4S161.4 18.4 163.6 18.4z"/><path id="XMLID_17_" fill="#F2F6F7" stroke="#FFFFFF" stroke-width="2" d="M163.5 610.5c13.5 0 24.4 10.9 24.4 24.4s-10.9 24.4-24.4 24.4-24.4-10.9-24.4-24.4S150 610.5 163.5 610.5z"/></g></svg>