<svg xmlns="http://www.w3.org/2000/svg" xmlns:xlink="http://www.w3.org/1999/xlink" version="1.1" id="Layer_1" x="0" y="0" width="296" height="11" viewBox="0 0 296 11" enable-background="new 0 0 296 11" xml:space="preserve"><g id="XMLID_33_"><path id="XMLID_1_" fill-rule="evenodd" clip-rule="evenodd" fill="#8B9AA2" d="M291.6 9.9h-18.3c-0.8 0-1.4-0.6-1.4-1.4V2.4c0-0.8 0.6-1.4 1.4-1.4h18.3c0.8 0 1.4 0.6 1.4 1.4v6.1C293 9.3 292.3 9.9 291.6 9.9zM292.5 2.4c0-0.5-0.4-0.9-0.9-0.9h-18.3c-0.5 0-0.9 0.4-0.9 0.9v6.1c0 0.5 0.4 0.9 0.9 0.9h18.3c0.5 0 0.9-0.4 0.9-0.9V2.4zM293.4 7.1V3.8c0.8 0 1.4 0.6 1.4 1.4v0.5C294.8 6.5 294.2 7.1 293.4 7.1zM273.3 1.9h18.3c0.3 0 0.5 0.2 0.5 0.5v6.1c0 0.3-0.2 0.5-0.5 0.5h-18.3c-0.3 0-0.5-0.2-0.5-0.5V2.4C272.8 2.1 273 1.9 273.3 1.9z"/><path id="XMLID_12_" fill="#72848E" d="M137.9 9h-5c0-0.6 0.2-1.1 0.4-1.6 0.3-0.4 0.7-0.8 1.2-1.2 0.2-0.2 0.5-0.3 0.7-0.5 0.3-0.2 0.5-0.3 0.7-0.5 0.2-0.2 0.4-0.4 0.5-0.6 0.1-0.2 0.2-0.5 0.2-0.8 0-0.1 0-0.3 0-0.4s-0.1-0.3-0.2-0.4c-0.1-0.1-0.2-0.2-0.4-0.3-0.2-0.1-0.4-0.1-0.6-0.1-0.2 0-0.4 0-0.6 0.1-0.2 0.1-0.3 0.2-0.4 0.4-0.1 0.2-0.2 0.4-0.2 0.6 0 0.2-0.1 0.5-0.1 0.7H133c0-0.4 0.1-0.8 0.2-1.1 0.1-0.3 0.3-0.6 0.5-0.9 0.2-0.2 0.5-0.4 0.8-0.6 0.3-0.1 0.7-0.2 1.1-0.2 0.4 0 0.8 0.1 1.1 0.2 0.3 0.1 0.5 0.3 0.7 0.6 0.2 0.2 0.3 0.5 0.4 0.7 0.1 0.3 0.1 0.5 0.1 0.7 0 0.3 0 0.6-0.1 0.8-0.1 0.2-0.2 0.5-0.4 0.6s-0.3 0.4-0.5 0.5c-0.2 0.2-0.4 0.3-0.6 0.5-0.2 0.1-0.4 0.3-0.6 0.4-0.2 0.1-0.4 0.3-0.6 0.4-0.2 0.1-0.3 0.3-0.5 0.4-0.1 0.1-0.2 0.3-0.3 0.5h3.5V9zM144.2 9h-5c0-0.6 0.2-1.1 0.4-1.6 0.3-0.4 0.7-0.8 1.2-1.2 0.2-0.2 0.5-0.3 0.7-0.5 0.3-0.2 0.5-0.3 0.7-0.5 0.2-0.2 0.4-0.4 0.5-0.6 0.1-0.2 0.2-0.5 0.2-0.8 0-0.1 0-0.3 0-0.4s-0.1-0.3-0.2-0.4c-0.1-0.1-0.2-0.2-0.4-0.3-0.2-0.1-0.4-0.1-0.6-0.1-0.2 0-0.4 0-0.6 0.1-0.2 0.1-0.3 0.2-0.4 0.4-0.1 0.2-0.2 0.4-0.2 0.6 0 0.2-0.1 0.5-0.1 0.7h-1.2c0-0.4 0.1-0.8 0.2-1.1 0.1-0.3 0.3-0.6 0.5-0.9 0.2-0.2 0.5-0.4 0.8-0.6 0.3-0.1 0.7-0.2 1.1-0.2 0.4 0 0.8 0.1 1.1 0.2 0.3 0.1 0.5 0.3 0.7 0.6 0.2 0.2 0.3 0.5 0.4 0.7 0.1 0.3 0.1 0.5 0.1 0.7 0 0.3 0 0.6-0.1 0.8-0.1 0.2-0.2 0.5-0.4 0.6s-0.3 0.4-0.5 0.5c-0.2 0.2-0.4 0.3-0.6 0.5-0.2 0.1-0.4 0.3-0.6 0.4-0.2 0.1-0.4 0.3-0.6 0.4-0.2 0.1-0.3 0.3-0.5 0.4-0.1 0.1-0.2 0.3-0.3 0.5h3.5V9zM151.4 1.5c0.5 0 0.9 0.1 1.3 0.4 0.3 0.2 0.6 0.5 0.8 0.9 0.2 0.4 0.3 0.8 0.4 1.2 0.1 0.4 0.1 0.9 0.1 1.3s0 0.8-0.1 1.3c-0.1 0.4-0.2 0.9-0.4 1.2-0.2 0.4-0.4 0.7-0.8 0.9-0.3 0.2-0.8 0.4-1.3 0.4-0.5 0-0.9-0.1-1.3-0.4-0.3-0.2-0.6-0.5-0.8-0.9-0.2-0.4-0.3-0.8-0.4-1.2-0.1-0.4-0.1-0.9-0.1-1.3s0-0.8 0.1-1.3c0.1-0.4 0.2-0.9 0.4-1.2 0.2-0.4 0.4-0.7 0.8-0.9C150.4 1.7 150.9 1.5 151.4 1.5zM151.4 8.1c0.3 0 0.5-0.1 0.6-0.2 0.2-0.1 0.3-0.3 0.4-0.6 0.1-0.3 0.2-0.5 0.2-0.9 0-0.3 0.1-0.7 0.1-1.1s0-0.7-0.1-1.1c0-0.3-0.1-0.6-0.2-0.9-0.1-0.3-0.2-0.5-0.4-0.6-0.2-0.1-0.4-0.2-0.6-0.2-0.3 0-0.5 0.1-0.6 0.2-0.2 0.1-0.3 0.4-0.4 0.6-0.1 0.3-0.2 0.6-0.2 0.9s-0.1 0.7-0.1 1.1 0 0.7 0.1 1.1 0.1 0.6 0.2 0.9c0.1 0.3 0.2 0.5 0.4 0.6C150.9 8 151.1 8.1 151.4 8.1zM156.1 1.7h3.8v1.1h-2.9l-0.4 1.8 0 0c0.2-0.2 0.4-0.3 0.6-0.4 0.2-0.1 0.5-0.1 0.7-0.1 0.4 0 0.7 0.1 1 0.2 0.3 0.1 0.5 0.3 0.7 0.5 0.2 0.2 0.3 0.5 0.4 0.8 0.1 0.3 0.2 0.6 0.2 1 0 0.3 0 0.6-0.1 0.9-0.1 0.3-0.2 0.6-0.4 0.8-0.2 0.3-0.5 0.5-0.8 0.6-0.3 0.2-0.7 0.2-1.1 0.2-0.4 0-0.7 0-1-0.1-0.3-0.1-0.6-0.2-0.8-0.4s-0.4-0.4-0.5-0.7c-0.1-0.3-0.2-0.6-0.2-1h1.2c0 0.4 0.2 0.7 0.4 0.9 0.2 0.2 0.5 0.3 0.9 0.3 0.2 0 0.5 0 0.6-0.1 0.2-0.1 0.3-0.2 0.4-0.3s0.2-0.3 0.2-0.5 0.1-0.4 0.1-0.6c0-0.2 0-0.4-0.1-0.6-0.1-0.2-0.1-0.3-0.2-0.5-0.1-0.1-0.3-0.2-0.4-0.3C158.1 5 157.9 5 157.6 5c-0.2 0-0.5 0-0.7 0.1-0.2 0.1-0.4 0.3-0.5 0.5h-1.2L156.1 1.7zM146.3 2.8c-0.4 0-0.7 0.3-0.7 0.7s0.3 0.7 0.7 0.7c0.4 0 0.7-0.3 0.7-0.7S146.7 2.8 146.3 2.8zM146.3 7.8c-0.4 0-0.7 0.3-0.7 0.7s0.3 0.7 0.7 0.7c0.4 0 0.7-0.3 0.7-0.7S146.7 7.8 146.3 7.8z"/><path id="XMLID_16_" fill-rule="evenodd" clip-rule="evenodd" fill="#7D8D96" d="M5.6 5.4c0 1.3-1 2.3-2.3 2.3S1 6.7 1 5.4s1-2.3 2.3-2.3S5.6 4.1 5.6 5.4zM10.1 3.1c-1.3 0-2.3 1-2.3 2.3s1 2.3 2.3 2.3 2.3-1 2.3-2.3S11.3 3.1 10.1 3.1zM16.8 3.1c-1.3 0-2.3 1-2.3 2.3s1 2.3 2.3 2.3 2.3-1 2.3-2.3S18.1 3.1 16.8 3.1zM23.5 3.1c-1.3 0-2.3 1-2.3 2.3s1 2.3 2.3 2.3 2.3-1 2.3-2.3S24.8 3.1 23.5 3.1zM30.3 3.1c-1.3 0-2.3 1-2.3 2.3s1 2.3 2.3 2.3 2.3-1 2.3-2.3S31.5 3.1 30.3 3.1z"/></g></svg>