<svg version="1.1" id="layer_1" xmlns="http://www.w3.org/2000/svg" xmlns:xlink="http://www.w3.org/1999/xlink" x="0" y="0" width="151" height="196" viewBox="0 0 151 196" enable-background="new 0 0 151 196" xml:space="preserve">
  <g id="head">
    <path id="XMLID_24_" fill="#F8B1B2" d="M149.8 105.1c0 7-5.6 12.7-12.6 12.8 -7 0-12.7-5.6-12.8-12.6S130 92.5 137 92.5C144 92.4 149.8 98.1 149.8 105.1z"/>
    <path id="XMLID_26_" fill="#F8B1B2" d="M26.4 105.7c0 7-5.6 12.7-12.6 12.8 -7 0-12.7-5.6-12.8-12.6 0-7 5.6-12.7 12.6-12.8S26.4 98.7 26.4 105.7z"/>
    <path id="XMLID_36_" fill="#FACAC9" d="M137.1 101.5c0.2 43.1-27.3 78.2-61.3 78.4S13.9 145.2 13.7 102 41 34 75.1 33.9C109.1 33.7 136.9 58.4 137.1 101.5z"/>
    <path id="XMLID_51_" fill="#ED5B34" d="M136.8 49.6c-3.1-7.5-36.3 0.2-36.3 0.2l0 9c17.6 10.8 29.5 30.1 29.6 52.3 0 0.4 0 0.8 0 1.2 -0.1 0.9-0.1 1.8-0.1 2.9 0 7.3-3.8 46.4-30.9 48.7 -12.1-1.1 1.8-36 1.8-41.7 0-6.6-16.7-9.4-24.7-9.4v0c-0.1 0-0.1 0-0.2 0 -0.1 0-0.1 0-0.2 0v0c-8 0.1-24.6 3-24.6 9.7 0 5.7 14.5 41.1 1.8 41.7 -27.5-1.7-31.7-41.1-31.8-48.5 0-1.1-0.1-2-0.1-2.9 0-0.4 0-0.8 0-1.2C21 89.5 32.6 70 50.2 59l0-9c0 0-33.3-7.4-36.3 0.2 -5.6 13.9 0.3 65.6 0.3 65.6 8 66.2 33 78.7 61.7 78.7v0c0.1 0 0.1 0 0.2 0 0.1 0 0.1 0 0.2 0v0c28.7-0.2 53.5-13 60.9-79.2C137.1 115.2 142.5 63.5 136.8 49.6zM76 149.5L76 149.5c-0.1 0-0.1 0-0.2 0 -0.1 0-0.1 0-0.2 0l0 0c-7.3 0.2-8.3 5.8-11.2 10 -3.4-7.6-8-24.6-4.3-29.4 2.9-3.8 11.2-4.7 15.9-4.7 4.7 0 13 0.8 15.9 4.6 3.9 4.9-0.9 22.7-4.3 30C84.4 155.8 83.7 149.7 76 149.5z"/>
    <path id="XMLID_21_" fill="#F8B1B2" d="M76.2 115.5c-7.6 0-10-2.6-10.1-7.2 0-4.7 5.6-27.5 9.9-27.2 4.3-0.3 10.1 22.5 10.1 27.1C86.2 112.8 83.8 115.4 76.2 115.5z"/>
    <path id="XMLID_20_" fill="#E93525" d="M66.3 113.8c0.6-0.1 1.2-0.2 1.9-0.3 1.6 1.3 4.1 2 8 2 3.9 0 6.4-0.7 7.9-2 0.6 0.1 1.2 0.2 1.9 0.3 -0.7 3.4-3.4 5.3-9.8 5.3C69.8 119.1 67.1 117.2 66.3 113.8z"/>
    <path id="XMLID_18_" fill="#E93525" d="M136 122.7c-8.4 59.7-32.4 71.5-60 71.7l0 0c-0.1 0-0.1 0-0.2 0 -0.1 0-0.1 0-0.2 0l0 0c-27.5 0-51.7-11.6-60.6-71.1 10.7 48.5 34.1 58.5 60.6 58.4l0 0c0.1 0 0.1 0 0.2 0 0.1 0 0.1 0 0.2 0l0 0C102.4 181.5 125.7 171.3 136 122.7z"/>
    <path id="XMLID_32_" fill="#ED5B34" d="M122.9 42.2c0.1 11.5-8.5 24-53 24.2 -40.2 0.2-58.5-19.4-58.6-37.1C11.2 12.8 21.7 2.1 32.3 2c-2.5 6.3 0 13.6 4.7 17.7C39.1 13.5 43.5 9 48.7 7.4c-0.8 9.4 1.1 15.4 11.6 15.7l0 0c5.2 0 11.2 0 17.5 0C106.1 22.9 122.8 25.2 122.9 42.2z"/>
    <path id="XMLID_29_" fill="#EDA49E" d="M122.4 46.6c0.3 1.3 0.5 2.7 0.5 4.3 0.1 11.5-8.5 24-53 24.2 -30.1 0.1-48-10.8-55-23.8 1.3-2.3 2.2-2.8 4-2.9 8.8 10.2 25.5 18.1 51 17.9C108.7 66.2 120.1 56.6 122.4 46.6z"/>
    <path id="XMLID_33_" fill="#F58752" d="M32.4 2c-2.5 6.3 0 13.6 4.7 17.7C39.2 13.5 43.5 9 48.8 7.4c-0.8 9.4 1.1 15.4 11.6 15.7 5.2 0 11.2 0 17.5 0 28.3-0.1 45 2.1 45.1 19.1 0 1.8-0.2 3.6-0.7 5.4 -0.1-17-18.1-18.2-46.3-18 -6.3 0-12.3 0-17.5 0 -10.5-0.3-16.3-0.5-23.2-3.4C28.2 23.2 22.6 8.4 32.4 2z"/>
    <path id="XMLID_31_" fill="#E93525" d="M112 67.8c-2.1-2.1-4.4-4.1-6.8-5.8 11.4-3.8 15.9-9.5 17.2-15.4 0.3 1.3 0.5 2.7 0.5 4.3C122.9 56.9 120.6 63.2 112 67.8z"/>
    <path id="XMLID_30_" fill="#E93525" d="M37.3 69.7c-11.9-4.7-19.5-12-23.3-19.9 0.7-1.1 2.1-1.9 4-2.4 5.4 6.7 14 12.5 26.2 15.8C41.7 65.2 39.4 67.3 37.3 69.7z"/>
    <path id="XMLID_34_" fill="#ED5B34" d="M46.9 23.6c-4-0.4-7.4-2-9.9-4 2.1-6.2 6.4-10.7 11.7-12.3C48.7 7.3 40.8 17.8 46.9 23.6z"/>
  </g>
</svg>
