<svg version="1.1" id="layer_1" xmlns="http://www.w3.org/2000/svg" xmlns:xlink="http://www.w3.org/1999/xlink" x="0" y="0" width="173" height="61" viewBox="0 0 173 61" enable-background="new 0 0 173 61" xml:space="preserve">
  <g id="right_arm_1_">
    <path id="XMLID_10_" fill="#FACAC9" d="M33.9 13.3C59.8 5 128.6 1 155.8 1c22.6 0 20 24.3 1.9 23.7C136.1 24 71.1 19.8 37.6 27c-4.2 0.9-6.7-0.9-8.2-3.8C27.6 19.9 29.9 14.6 33.9 13.3z"/>
    <path id="XMLID_9_" fill="#FACAC9" d="M39.3 29.7c-7.5 4.6-9 8.1-11.9 13.4 -5.5 10.1-1.8 17.6-12.5 17.2C8.7 60.1 0.2 52.5 1.1 36.5c0.2-4.6 2.2-8.8 5.1-12.3 -0.1-1.5 1.5-6.6 3.2-7.6 1.9-1.2 10.7-3.8 13.8-3 0 0 0 0 0 0 2.7-0.7 5.2-0.8 7.4-0.5 7.7 1.3 8.7 2.3 12.4 8.8C44.8 25 40.8 28.8 39.3 29.7z"/>
  </g>
</svg>
