<svg version="1.1" id="Layer_2" xmlns="http://www.w3.org/2000/svg" xmlns:xlink="http://www.w3.org/1999/xlink" x="0" y="0" width="272" height="101" viewBox="0 0 272 101" enable-background="new 0 0 272 101" xml:space="preserve">
  <g id="body">
    <path id="XMLID_35_" fill="#22C7F4" d="M220.3 58.3c8.6 9.1-14.2 40.7-20 38.4C189.9 92.6 208.9 56.2 220.3 58.3z"/>
    <path id="XMLID_12_" fill="#FACAC9" d="M160.6 36.2c37.6 12.5 90.8 34.9 103.8 41.5 8.8 4.5 7.6 12.9 5.3 16.5 -3 4.6-7.8 8.2-17.8 4.3C237.7 93 155 68.9 147.5 67.2c-7.5-1.7-17.6-10.4-12.1-24S155.9 34.6 160.6 36.2z"/>
    <path id="XMLID_4_" fill="#22C7F4" d="M158.1 65c0 5.8 0 11.4-0.1 16.8H17.9c0-0.2 0-0.3 0-0.5C17.3 70.5-7.8 55.1 4.3 44c18.5-17 36.6-25.8 84-25.8 48.9 0 64.6 7.9 88.4 22.5C171.2 40.7 158.1 57.6 158.1 65z"/>
    <path id="XMLID_17_" fill="#FACAC9" d="M101.5 25.6c0 4.3-5.9 7.9-13.1 7.9s-13.1-3.5-13.1-7.9V1h26.2V25.6z"/>
    <path id="XMLID_16_" fill="#EDA49E" d="M101.5 8.8v13.9c-4.8 1.5-9.8 2.3-14.9 2.3 -3.9 0-7.7-0.5-11.4-1.3V8.8H101.5z"/>
    <path id="XMLID_13_" fill="#47DFF8" d="M174.4 39.6c12 4.3 28.9 9.9 45.9 18.7 -13.2 2.2-25.3 34-20 38.4 -17-4.4-33-10-42.3-16.6C124.1 54.7 152.4 31.8 174.4 39.6z"/>
    <path id="XMLID_6_" fill="#FFFFFF" d="M115.7 81.8h-53c5.6-8 15-13 26.5-13S110.1 73.8 115.7 81.8z"/>
  </g>
</svg>
