<?xml version="1.0" encoding="utf-8"?>
<!-- Generator: Adobe Illustrator 16.0.3, SVG Export Plug-In . SVG Version: 6.00 Build 0)  -->
<!DOCTYPE svg PUBLIC "-//W3C//DTD SVG 1.1//EN" "http://www.w3.org/Graphics/SVG/1.1/DTD/svg11.dtd">
<svg version="1.1" xmlns="http://www.w3.org/2000/svg" xmlns:xlink="http://www.w3.org/1999/xlink" x="0px" y="0px" width="25px"
	 height="30px" viewBox="0 0 25 30" enable-background="new 0 0 25 30" xml:space="preserve">
<g id="Capa_3_1_" display="none">
	<rect x="-0.833" y="-1" display="inline" width="27.583" height="32.333"/>
</g>
<g id="Capa_1" display="none">
	<g id="Capa_3">
		<rect x="-2.375" y="-2.375" display="inline" fill="#FF0000" width="35.875" height="38"/>
	</g>
	<g id="Layer_1">
		<g display="inline">
			<g>
				<g>
					<path fill="#FFFFFF" d="M24.128,10.879L23.581,10.3l-1.92-5.172c-0.326-0.874-1.162-1.454-2.097-1.458H5.859
						c-0.932,0-1.769,0.584-2.096,1.458l-1.892,5.108l-0.788,0.729C0.397,11.55,0,12.407,0,13.308v7.537
						c0.005,1.233,1.008,2.23,2.241,2.23h1.415c1.233,0,2.235-0.997,2.241-2.23v-1.093h13.294v1.093
						c0.006,1.233,1.008,2.23,2.24,2.23h1.416c1.231,0,2.234-0.997,2.239-2.23V13.11C25.082,12.269,24.738,11.464,24.128,10.879z
						 M4.771,5.493c0.171-0.456,0.605-0.751,1.088-0.751H19.57c0.484,0,0.918,0.3,1.09,0.751l1.672,4.502h-1.249
						c-0.295-2.01-2.166-3.399-4.176-3.099c-1.604,0.236-2.862,1.496-3.099,3.099H3.099L4.771,5.493z M19.988,9.996h-5.098
						c0.297-1.41,1.678-2.311,3.088-2.016C18.986,8.194,19.773,8.982,19.988,9.996z M4.825,20.845
						c-0.005,0.645-0.526,1.158-1.169,1.158H2.241c-0.644,0-1.163-0.515-1.168-1.158v-1.405c0.321,0.209,0.745,0.313,1.168,0.313
						h2.584V20.845z M24.016,20.845c-0.006,0.645-0.525,1.158-1.168,1.158h-1.416c-0.644,0-1.162-0.521-1.168-1.158v-1.093h2.584
						c0.424,0,0.846-0.104,1.168-0.313V20.845L24.016,20.845z M22.848,18.68H2.241c-0.638,0.006-1.163-0.504-1.168-1.146v-4.224
						c0-0.589,0.263-1.152,0.713-1.533c0.005-0.005,0.016-0.016,0.021-0.022l0.729-0.686h20.3l0.516,0.552
						c0.004,0.011,0.021,0.016,0.026,0.027c0.401,0.38,0.632,0.912,0.632,1.463v4.422h0.006C24.01,18.17,23.484,18.686,22.848,18.68
						z"/>
				</g>
			</g>
			<g>
				<g>
					<path fill="#FFFFFF" d="M7.076,13.212H3.055c-0.294,0-0.536,0.241-0.536,0.536v2.787c0,0.295,0.241,0.535,0.536,0.535h4.021
						c0.295,0,0.536-0.24,0.536-0.535v-2.787C7.612,13.453,7.371,13.212,7.076,13.212z M6.54,15.999H3.591v-1.715H6.54V15.999z"/>
				</g>
			</g>
			<g>
				<g>
					<path fill="#FFFFFF" d="M22.032,13.212h-4.021c-0.296,0-0.537,0.241-0.537,0.536v2.787c0,0.295,0.241,0.535,0.537,0.535h4.021
						c0.295,0,0.536-0.24,0.536-0.535v-2.787C22.568,13.453,22.327,13.212,22.032,13.212z M21.496,15.999h-2.949v-1.715h2.949
						V15.999z"/>
				</g>
			</g>
			<g>
				<g>
					<path fill="#FFFFFF" d="M15.133,15.463H9.954c-0.294,0-0.536,0.241-0.536,0.536c0,0.296,0.241,0.536,0.536,0.536h5.179
						c0.295,0,0.536-0.24,0.536-0.536C15.669,15.704,15.428,15.463,15.133,15.463z"/>
				</g>
			</g>
			<g>
				<g>
					<path fill="#FFFFFF" d="M15.133,13.802H9.954c-0.294,0-0.536,0.241-0.536,0.536c0,0.294,0.241,0.536,0.536,0.536h5.179
						c0.295,0,0.536-0.242,0.536-0.536C15.669,14.042,15.428,13.802,15.133,13.802z"/>
				</g>
			</g>
		</g>
	</g>
	<g id="Capa_2">
		<g display="inline">
			<g>
				<path fill="none" stroke="#FFFFFF" stroke-miterlimit="10" d="M12.542,7.366L3.89,14.498c0,0.011-0.002,0.025-0.008,0.045
					c-0.004,0.021-0.007,0.034-0.007,0.045v7.225c0,0.261,0.096,0.485,0.286,0.678c0.19,0.189,0.417,0.285,0.678,0.285h5.778v-5.778
					h3.852v5.778h5.78c0.26,0,0.485-0.096,0.677-0.285c0.191-0.191,0.287-0.417,0.287-0.678v-7.225c0-0.04-0.006-0.07-0.016-0.09
					L12.542,7.366z"/>
				<path fill="none" stroke="#FFFFFF" stroke-miterlimit="10" d="M24.505,12.872l-3.294-2.739v-6.14
					c0-0.14-0.047-0.255-0.137-0.345c-0.092-0.091-0.206-0.136-0.348-0.136h-2.889c-0.14,0-0.255,0.045-0.347,0.136
					c-0.091,0.09-0.136,0.206-0.136,0.345v2.935l-3.672-3.07c-0.32-0.261-0.703-0.391-1.144-0.391s-0.823,0.13-1.144,0.391
					l-10.82,9.013c-0.1,0.081-0.155,0.189-0.166,0.324c-0.01,0.135,0.024,0.254,0.105,0.353l0.933,1.115
					c0.081,0.09,0.187,0.146,0.316,0.166c0.121,0.01,0.241-0.026,0.361-0.105L12.538,6.04l10.414,8.684
					c0.081,0.069,0.187,0.104,0.317,0.104h0.043c0.131-0.02,0.236-0.075,0.316-0.165l0.934-1.115c0.078-0.1,0.115-0.218,0.104-0.353
					C24.656,13.06,24.605,12.953,24.505,12.872z"/>
			</g>
		</g>
	</g>
	<g id="Capa_4" display="inline">
		<g>
			<g>
				<path fill="none" stroke="#FFFFFF" stroke-miterlimit="10" d="M11.967,13.931c2.469,0,4.471-2.342,4.471-5.232
					c0-4.007-2.002-5.231-4.471-5.231s-4.47,1.225-4.47,5.231C7.498,11.589,9.5,13.931,11.967,13.931z"/>
				<path fill="none" stroke="#FFFFFF" stroke-miterlimit="10" d="M21.838,21.631l-2.256-5.079c-0.102-0.233-0.283-0.427-0.51-0.543
					l-3.5-1.822c-0.076-0.04-0.17-0.032-0.24,0.021c-0.988,0.748-2.152,1.144-3.365,1.144c-1.211,0-2.375-0.396-3.365-1.144
					c-0.069-0.053-0.163-0.061-0.24-0.021l-3.5,1.822c-0.225,0.116-0.406,0.31-0.51,0.543l-2.255,5.079
					c-0.155,0.352-0.123,0.751,0.086,1.072c0.209,0.32,0.562,0.513,0.945,0.513h17.679c0.385,0,0.736-0.19,0.945-0.513
					S21.992,21.98,21.838,21.631z"/>
			</g>
		</g>
	</g>
</g>
<g id="Capa_2_1_">
	<g>
		<path fill="#FFFFFF" d="M14.81,13.801c-0.191,0-0.348,0.156-0.348,0.348v4.865H4.04V5.813h10.422v4.863
			c0,0.192,0.156,0.348,0.348,0.348c0.193,0,0.348-0.156,0.348-0.348V4.563c0-0.844-0.686-1.531-1.53-1.531H4.875
			c-0.844,0-1.53,0.687-1.53,1.531v17.785c0,0.845,0.687,1.531,1.53,1.531h8.752c0.844,0,1.529-0.687,1.529-1.531v-8.199
			C15.157,13.957,15.003,13.801,14.81,13.801z M4.875,3.728h8.752c0.46,0,0.835,0.375,0.835,0.836v0.554H4.039V4.563
			C4.04,4.103,4.414,3.728,4.875,3.728z M13.627,23.184H4.875c-0.461,0-0.835-0.375-0.835-0.835v-2.638h10.422v2.638
			C14.462,22.809,14.088,23.184,13.627,23.184z"/>
		<path fill="#FFFFFF" d="M22.427,12.546c0.036-0.085,0.036-0.181,0-0.266c-0.018-0.043-0.042-0.081-0.074-0.113l-4.17-4.168
			c-0.136-0.136-0.355-0.136-0.492,0c-0.136,0.135-0.136,0.355,0,0.491l3.578,3.577H8.903c-0.191,0-0.347,0.155-0.347,0.347
			c0,0.192,0.156,0.348,0.347,0.348h12.365l-3.578,3.576c-0.136,0.136-0.136,0.356,0,0.492c0.068,0.067,0.158,0.102,0.247,0.102
			c0.088,0,0.178-0.034,0.245-0.102l4.17-4.17C22.385,12.628,22.409,12.588,22.427,12.546z"/>
	</g>
</g>
</svg>
